<svg width="535" height="200" viewBox="0 0 535 200" fill="none" xmlns="http://www.w3.org/2000/svg">
<path fill-rule="evenodd" clip-rule="evenodd" d="M184.09 184.09C168.179 200 143.819 200 100 200C56.1806 200 31.8207 200 15.9103 184.09C-2.6491e-06 168.179 0 143.819 0 100C0 56.1806 -2.6491e-06 31.8207 15.9103 15.9103C31.8207 -2.6491e-06 56.1806 0 100 0C143.819 0 168.179 -2.6491e-06 184.09 15.9103C200 31.8207 200 56.1806 200 100C200 143.819 200 168.179 184.09 184.09ZM175.33 175.33C161.077 189.583 139.255 189.583 100 189.583C60.7451 189.583 38.9227 189.583 24.6697 175.33C10.4167 161.077 10.4167 139.255 10.4167 100C10.4167 60.7451 10.4167 38.9228 24.6697 24.6697C38.9227 10.4167 60.7451 10.4167 100 10.4167C139.255 10.4167 161.077 10.4167 175.33 24.6697C189.583 38.9228 189.583 60.7451 189.583 100C189.583 139.255 189.583 161.077 175.33 175.33Z" fill="#EC5A50"/>
<path d="M88.3163 127.887H78.8891V151.908H66.3195V86.1111H92.5062C95.6486 86.1111 98.5466 86.6681 101.2 87.7821C103.924 88.8265 106.263 90.2887 108.218 92.1686C110.174 94.0485 111.71 96.2418 112.827 98.7483C113.944 101.185 114.503 103.761 114.503 106.477C114.503 110.167 113.77 113.231 112.303 115.668C110.837 118.105 109.196 120.089 107.38 121.621C105.285 123.431 102.946 124.824 100.362 125.798L116.074 151.908H101.933L88.3163 127.887ZM78.8891 115.877H92.5062C95.1598 115.877 97.3944 115.006 99.21 113.266C101.026 111.455 101.933 109.366 101.933 106.999C101.933 104.632 101.026 102.578 99.21 100.837C97.3944 99.0268 95.1598 98.1217 92.5062 98.1217H78.8891V115.877Z" fill="#EC5A50"/>
<path d="M166.832 137.287C166.203 139.097 165.225 140.907 163.899 142.718C162.642 144.528 161.071 146.164 159.185 147.626C157.369 149.019 155.275 150.168 152.9 151.073C150.596 151.978 148.082 152.431 145.358 152.431C142.076 152.431 138.969 151.804 136.036 150.551C133.173 149.228 130.624 147.452 128.389 145.224C126.225 142.996 124.479 140.42 123.152 137.496C121.895 134.502 121.267 131.299 121.267 127.887C121.267 124.475 121.895 121.307 123.152 118.383C124.479 115.389 126.225 112.778 128.389 110.55C130.624 108.322 133.173 106.581 136.036 105.328C138.969 104.005 142.076 103.344 145.358 103.344C148.501 103.344 151.469 103.936 154.262 105.119C157.055 106.303 159.499 107.974 161.594 110.132C163.689 112.291 165.33 114.902 166.517 117.965C167.774 120.959 168.403 124.267 168.403 127.887C168.403 128.444 168.368 129.001 168.298 129.558C168.228 130.046 168.158 130.533 168.089 131.02C168.019 131.577 167.949 132.1 167.879 132.587H134.36C134.919 134.954 136.106 136.939 137.921 138.54C139.737 140.141 142.216 140.942 145.358 140.942C146.965 140.942 148.291 140.768 149.339 140.42C150.456 140.072 151.399 139.654 152.167 139.167C153.005 138.61 153.703 137.983 154.262 137.287H166.832ZM145.358 114.832C142.216 114.832 139.632 115.737 137.607 117.548C135.652 119.358 134.395 121.586 133.836 124.232H156.881C156.322 121.586 155.03 119.358 153.005 117.548C151.05 115.737 148.501 114.832 145.358 114.832Z" fill="#EC5A50"/>
<path d="M234.222 152.931C231.356 152.931 228.622 152.364 226.022 151.231C223.422 150.031 221.122 148.397 219.122 146.331C217.189 144.197 215.622 141.697 214.422 138.831C213.289 135.964 212.722 132.831 212.722 129.431C212.722 126.031 213.289 122.897 214.422 120.031C215.622 117.164 217.189 114.697 219.122 112.631C221.122 110.497 223.422 108.864 226.022 107.731C228.622 106.531 231.356 105.931 234.222 105.931C236.089 105.931 237.756 106.197 239.222 106.731C240.689 107.197 241.956 107.697 243.022 108.231C244.222 108.897 245.289 109.631 246.222 110.431V89.4305H257.722V152.431H249.222L247.222 147.931C246.156 148.864 244.989 149.697 243.722 150.431C242.589 151.097 241.222 151.697 239.622 152.231C238.022 152.697 236.222 152.931 234.222 152.931ZM247.222 129.431C247.222 125.631 246.122 122.597 243.922 120.331C241.722 118.064 238.989 116.931 235.722 116.931C232.456 116.931 229.722 118.064 227.522 120.331C225.322 122.597 224.222 125.631 224.222 129.431C224.222 133.231 225.322 136.264 227.522 138.531C229.722 140.797 232.456 141.931 235.722 141.931C238.989 141.931 241.722 140.797 243.922 138.531C246.122 136.264 247.222 133.231 247.222 129.431Z" fill="#EC5A50"/>
<path d="M280.238 152.431H268.738V106.431H280.238V152.431ZM274.738 100.431C273.005 100.431 271.471 99.7972 270.138 98.5305C268.871 97.1972 268.238 95.6639 268.238 93.9305C268.238 92.1972 268.871 90.6972 270.138 89.4305C271.471 88.0972 273.005 87.4305 274.738 87.4305C276.471 87.4305 277.971 88.0972 279.238 89.4305C280.571 90.6972 281.238 92.1972 281.238 93.9305C281.238 95.6639 280.571 97.1972 279.238 98.5305C277.971 99.7972 276.471 100.431 274.738 100.431Z" fill="#EC5A50"/>
<path d="M312.699 105.931C313.232 105.931 313.699 105.964 314.099 106.031C314.499 106.097 314.865 106.164 315.199 106.231C315.532 106.297 315.865 106.364 316.199 106.431V118.431C315.865 118.364 315.499 118.297 315.099 118.231C314.765 118.164 314.332 118.097 313.799 118.031C313.332 117.964 312.799 117.931 312.199 117.931C309.399 117.931 307.099 118.864 305.299 120.731C303.565 122.531 302.699 124.931 302.699 127.931V152.431H291.199V106.431H299.699L301.699 111.431C302.499 110.431 303.465 109.531 304.599 108.731C305.532 107.997 306.665 107.364 307.999 106.831C309.399 106.231 310.965 105.931 312.699 105.931Z" fill="#EC5A50"/>
<path d="M364.23 138.431C363.63 140.164 362.697 141.897 361.43 143.631C360.23 145.364 358.73 146.931 356.93 148.331C355.197 149.664 353.197 150.764 350.93 151.631C348.73 152.497 346.33 152.931 343.73 152.931C340.597 152.931 337.63 152.331 334.83 151.131C332.097 149.864 329.663 148.164 327.53 146.031C325.463 143.897 323.797 141.431 322.53 138.631C321.33 135.764 320.73 132.697 320.73 129.431C320.73 126.164 321.33 123.131 322.53 120.331C323.797 117.464 325.463 114.964 327.53 112.831C329.663 110.697 332.097 109.031 334.83 107.831C337.63 106.564 340.597 105.931 343.73 105.931C346.73 105.931 349.563 106.497 352.23 107.631C354.897 108.764 357.23 110.364 359.23 112.431C361.23 114.497 362.797 116.997 363.93 119.931C365.13 122.797 365.73 125.964 365.73 129.431C365.73 129.964 365.697 130.497 365.63 131.031C365.563 131.497 365.497 131.964 365.43 132.431C365.363 132.964 365.297 133.464 365.23 133.931H333.23C333.763 136.197 334.897 138.097 336.63 139.631C338.363 141.164 340.73 141.931 343.73 141.931C345.263 141.931 346.53 141.764 347.53 141.431C348.597 141.097 349.497 140.697 350.23 140.231C351.03 139.697 351.697 139.097 352.23 138.431H364.23ZM343.73 116.931C340.73 116.931 338.263 117.797 336.33 119.531C334.463 121.264 333.263 123.397 332.73 125.931H354.73C354.197 123.397 352.963 121.264 351.03 119.531C349.163 117.797 346.73 116.931 343.73 116.931Z" fill="#EC5A50"/>
<path d="M416.207 135.431C415.673 137.697 414.773 139.897 413.507 142.031C412.24 144.097 410.673 145.964 408.807 147.631C406.94 149.231 404.807 150.531 402.407 151.531C400.007 152.464 397.44 152.931 394.707 152.931C391.573 152.931 388.607 152.331 385.807 151.131C383.073 149.864 380.64 148.164 378.507 146.031C376.44 143.897 374.773 141.431 373.507 138.631C372.307 135.764 371.707 132.697 371.707 129.431C371.707 126.164 372.307 123.131 373.507 120.331C374.773 117.464 376.44 114.964 378.507 112.831C380.64 110.697 383.073 109.031 385.807 107.831C388.607 106.564 391.573 105.931 394.707 105.931C397.44 105.931 400.007 106.431 402.407 107.431C404.807 108.364 406.94 109.664 408.807 111.331C410.673 112.931 412.24 114.797 413.507 116.931C414.773 118.997 415.673 121.164 416.207 123.431H404.707C404.173 122.231 403.44 121.164 402.507 120.231C401.707 119.431 400.673 118.697 399.407 118.031C398.14 117.297 396.573 116.931 394.707 116.931C391.44 116.931 388.707 118.064 386.507 120.331C384.307 122.597 383.207 125.631 383.207 129.431C383.207 133.231 384.307 136.264 386.507 138.531C388.707 140.797 391.44 141.931 394.707 141.931C396.573 141.931 398.14 141.597 399.407 140.931C400.673 140.264 401.707 139.531 402.507 138.731C403.44 137.797 404.173 136.697 404.707 135.431H416.207Z" fill="#EC5A50"/>
<path d="M429.207 95.4305H439.207V106.431H449.207V116.931H439.207V135.931C439.207 137.931 439.773 139.531 440.907 140.731C442.107 141.864 443.707 142.431 445.707 142.431C446.24 142.431 446.673 142.431 447.007 142.431C447.34 142.364 447.64 142.297 447.907 142.231C448.173 142.164 448.44 142.064 448.707 141.931V151.931C448.24 152.131 447.707 152.297 447.107 152.431C445.973 152.764 444.673 152.931 443.207 152.931C440.94 152.931 438.84 152.564 436.907 151.831C435.04 151.031 433.407 149.897 432.007 148.431C430.673 146.964 429.607 145.231 428.807 143.231C428.073 141.231 427.707 138.964 427.707 136.431V116.931H420.707V107.431H423.707C427.373 107.431 429.207 105.597 429.207 101.931V95.4305Z" fill="#EC5A50"/>
<path d="M466.703 129.431C466.703 133.231 467.803 136.264 470.003 138.531C472.203 140.797 474.936 141.931 478.203 141.931C481.469 141.931 484.203 140.797 486.403 138.531C488.603 136.264 489.703 133.231 489.703 129.431C489.703 125.631 488.603 122.597 486.403 120.331C484.203 118.064 481.469 116.931 478.203 116.931C474.936 116.931 472.203 118.064 470.003 120.331C467.803 122.597 466.703 125.631 466.703 129.431ZM501.203 129.431C501.203 132.697 500.569 135.764 499.303 138.631C498.103 141.431 496.436 143.897 494.303 146.031C492.236 148.164 489.803 149.864 487.003 151.131C484.269 152.331 481.336 152.931 478.203 152.931C475.069 152.931 472.103 152.331 469.303 151.131C466.569 149.864 464.136 148.164 462.003 146.031C459.936 143.897 458.269 141.431 457.003 138.631C455.803 135.764 455.203 132.697 455.203 129.431C455.203 126.164 455.803 123.131 457.003 120.331C458.269 117.464 459.936 114.964 462.003 112.831C464.136 110.697 466.569 109.031 469.303 107.831C472.103 106.564 475.069 105.931 478.203 105.931C481.336 105.931 484.269 106.564 487.003 107.831C489.803 109.031 492.236 110.697 494.303 112.831C496.436 114.964 498.103 117.464 499.303 120.331C500.569 123.131 501.203 126.164 501.203 129.431Z" fill="#EC5A50"/>
<path d="M531.156 105.931C531.689 105.931 532.156 105.964 532.556 106.031C532.956 106.097 533.322 106.164 533.656 106.231C533.989 106.297 534.322 106.364 534.656 106.431V118.431C534.322 118.364 533.956 118.297 533.556 118.231C533.222 118.164 532.789 118.097 532.256 118.031C531.789 117.964 531.256 117.931 530.656 117.931C527.856 117.931 525.556 118.864 523.756 120.731C522.022 122.531 521.156 124.931 521.156 127.931V152.431H509.656V106.431H518.156L520.156 111.431C520.956 110.431 521.922 109.531 523.056 108.731C523.989 107.997 525.122 107.364 526.456 106.831C527.856 106.231 529.422 105.931 531.156 105.931Z" fill="#EC5A50"/>
</svg>
